<?xml version="1.0" encoding="UTF-8"?>
<svg xmlns="http://www.w3.org/2000/svg"
     xmlns:xlink="http://www.w3.org/1999/xlink"
>
  <symbol viewBox="0 0 24 24" id="close" xmlns="http://www.w3.org/2000/svg">
    <path fill="inherit"
          d="M19 6.41L17.59 5 12 10.59 6.41 5 5 6.41 10.59 12 5 17.59 6.41 19 12 13.41 17.59 19 19 17.59 13.41 12z"/>
  </symbol>
  <symbol viewBox="0 0 24 24" id="delete" xmlns="http://www.w3.org/2000/svg">
    <path
      d="M6 19c0 1.1.9 2 2 2h8c1.1 0 2-.9 2-2V7H6v12zm2.46-7.12l1.41-1.41L12 12.59l2.12-2.12 1.41 1.41L13.41 14l2.12 2.12-1.41 1.41L12 15.41l-2.12 2.12-1.41-1.41L10.59 14l-2.13-2.12zM15.5 4l-1-1h-5l-1 1H5v2h14V4h-3.5z"/>
  </symbol>
  <symbol viewBox="0 0 24 24" id="settings" xmlns="http://www.w3.org/2000/svg">
    <g transform="matrix(0.0390625,0,0,0.0390625,2,2)">
      <path
        d="M 490.667,405.333 H 433.856 C 424.619,374.592 396.373,352 362.667,352 c -33.706,0 -61.931,22.592 -71.189,53.333 H 21.333 C 9.557,405.333 0,414.891 0,426.667 0,438.443 9.557,448 21.333,448 h 270.144 c 9.237,30.741 37.483,53.333 71.189,53.333 33.706,0 61.931,-22.592 71.189,-53.333 h 56.811 c 11.797,0 21.333,-9.557 21.333,-21.333 0,-11.776 -9.535,-21.334 -21.332,-21.334 z m -128,53.334 c -17.643,0 -32,-14.357 -32,-32 0,-17.643 14.357,-32 32,-32 17.643,0 32,14.357 32,32 0,17.643 -14.358,32 -32,32 z"/>
      <path
        d="M 490.667,64 H 433.856 C 424.597,33.259 396.373,10.667 362.667,10.667 328.961,10.667 300.736,33.259 291.477,64 H 21.333 C 9.557,64 0,73.557 0,85.333 c 0,11.776 9.557,21.333 21.333,21.333 h 270.144 c 9.259,30.742 37.483,53.334 71.19,53.334 33.707,0 61.931,-22.592 71.189,-53.333 h 56.811 C 502.464,106.667 512,97.11 512,85.334 512,73.558 502.464,64 490.667,64 Z m -128,53.333 c -17.643,0 -32,-14.357 -32,-32 0,-17.643 14.357,-32 32,-32 17.643,0 32,14.357 32,32 0,17.643 -14.358,32 -32,32 z"/>
      <path
        d="M 490.667,234.667 H 220.523 c -9.259,-30.741 -37.483,-53.333 -71.189,-53.333 -33.706,0 -61.931,22.592 -71.189,53.333 H 21.333 C 9.557,234.667 0,244.224 0,256 c 0,11.776 9.557,21.333 21.333,21.333 h 56.811 c 9.259,30.741 37.483,53.333 71.189,53.333 33.706,0 61.931,-22.592 71.189,-53.333 h 270.144 c 11.797,0 21.333,-9.557 21.333,-21.333 10e-4,-11.776 -9.535,-21.333 -21.332,-21.333 z M 149.333,288 c -17.643,0 -32,-14.357 -32,-32 0,-17.643 14.357,-32 32,-32 17.643,0 32,14.357 32,32 0,17.643 -14.357,32 -32,32 z"/>
    </g>
  </symbol>
</svg>
